<svg xmlns="http://www.w3.org/2000/svg" xmlns:xlink="http://www.w3.org/1999/xlink" version="1.1" id="Layer_1" x="0px" y="0px" width="100%" viewBox="0 0 1366 768" enable-background="new 0 0 1366 768" xml:space="preserve">
<path fill="transparent" opacity="1.000000" stroke="none" d=" M1.000000,762.000000   C1.000000,510.638641 1.000000,259.277283 1.453632,7.457823   C456.938171,6.999826 911.969116,6.999913 1367.000000,7.000000   C1367.000000,258.361359 1367.000000,509.722748 1366.546387,761.542114   C911.061829,762.000122 456.030914,762.000061 1.000000,762.000000  M490.457184,581.034180   C495.757477,585.646790 500.844391,590.537354 506.407104,594.808105   C515.198120,601.557373 524.000977,608.379639 533.366333,614.268494   C543.519104,620.652527 553.979248,626.782043 564.931946,631.597412   C577.268616,637.021240 590.135498,641.436096 603.088806,645.198792   C613.679077,648.275146 624.645325,650.552490 635.602112,651.773132   C662.539795,654.774170 689.547607,656.247742 716.333984,650.000610   C727.897888,647.303589 739.578674,645.046204 751.023071,641.918457   C759.601135,639.574097 768.039856,636.530579 776.268982,633.139099   C792.446533,626.471680 807.784058,618.090637 822.022949,607.931274   C831.718567,601.013489 841.290161,593.786865 850.089966,585.788269   C858.218750,578.399536 865.597168,570.093201 872.666443,561.655151   C880.945374,551.773376 889.272034,541.786682 896.215454,530.970886   C903.375427,519.817810 909.664124,507.944733 914.924927,495.777435   C920.468262,482.956726 925.117493,469.621948 928.724548,456.128723   C932.085693,443.555450 934.525635,430.562225 935.649902,417.604462   C937.438660,396.988251 938.803894,376.261108 934.122681,355.681763   C930.977478,341.855103 929.089355,327.729126 925.624573,313.992889   C923.050537,303.788177 919.512329,293.695068 915.190491,284.098572   C910.563171,273.823730 904.796143,264.020752 899.003418,254.324356   C893.708740,245.461746 888.282104,236.566696 881.883179,228.503784   C874.239258,218.872223 866.061096,209.509872 857.093811,201.122025   C845.627991,190.397141 833.840210,179.737167 820.907166,170.936096   C807.111572,161.548035 792.450684,153.329071 776.814697,146.853790   C760.767822,140.208328 744.387451,134.770737 727.529480,131.123093   C701.176392,125.420929 674.409607,124.955498 647.559814,127.027031   C627.856689,128.547180 608.581055,132.011032 590.099426,139.116165   C578.775513,143.469559 567.410706,147.825546 556.467285,153.027954   C546.246399,157.886871 536.042297,163.119965 526.763367,169.536850   C514.834961,177.786057 503.510193,187.004700 492.551788,196.526627   C485.118225,202.985794 478.659058,210.589951 471.962097,217.864334   C467.954590,222.217438 463.977173,226.677689 460.611023,231.523758   C455.093140,239.467667 449.667358,247.532669 444.963593,255.970749   C438.808594,267.012085 432.705353,278.178986 427.851227,289.821930   C422.854980,301.805786 418.371918,314.196991 415.511322,326.828217   C412.051758,342.104462 409.491364,357.752747 408.482788,373.365387   C407.583191,387.291718 407.795288,401.321106 409.668274,415.453033   C412.393646,436.016235 415.886475,456.106506 422.830963,475.771545   C428.736053,492.493286 435.747375,508.535645 444.691010,523.778442   C447.851166,529.164307 450.939178,534.643799 454.647827,539.644714   C460.411682,547.416809 466.499634,554.968628 472.785980,562.327026   C478.209778,568.675842 484.101837,574.624634 490.457184,581.034180  M222.499863,561.798584   C229.243851,561.798584 235.987839,561.798584 243.057785,561.798584   C243.057785,564.707947 243.101318,566.687744 243.051193,568.665161   C242.401611,594.290771 242.037872,619.928467 240.971146,645.536865   C240.290649,661.872742 254.292999,672.175354 268.086853,673.196289   C275.756622,673.763855 282.647858,671.782593 288.794708,667.798828   C296.626373,662.723145 301.528381,655.264526 301.664429,645.695984   C301.750122,639.669312 300.442383,633.636169 300.119812,627.586670   C299.791748,621.435181 299.952972,615.259033 299.816101,609.095520   C299.501984,594.946960 299.064301,580.800354 298.895813,566.650391   C298.877350,565.098450 300.226807,562.213806 301.042847,562.176819   C307.522308,561.883179 314.191528,561.244629 320.483215,562.420410   C329.544952,564.113953 338.252441,564.928223 347.131744,561.823730   C353.303558,559.665833 357.448334,555.949646 359.950378,549.730713   C363.616821,540.617737 362.414276,531.677612 359.832581,522.821045   C358.965607,519.846924 356.678070,516.995605 354.367889,514.792847   C349.281555,509.942993 342.984283,507.717316 335.885712,508.147125   C324.856018,508.814880 313.820618,509.420349 302.805695,510.282959   C298.766541,510.599243 297.514893,509.115295 297.711060,505.214417   C297.876862,501.918030 297.210602,498.589142 297.118286,495.268951   C296.396393,469.310669 295.790924,443.348999 295.016602,417.392365   C294.334503,394.527954 293.480927,371.668640 292.702789,348.807098   C292.691406,348.474091 292.672180,348.141327 292.662201,347.808289   C292.040771,327.017609 291.389496,306.227692 290.875092,285.434357   C290.844391,284.193665 291.572052,282.441345 292.534729,281.769714   C294.653381,280.291504 297.065491,279.127472 299.503448,278.231232   C312.674103,273.389343 321.878143,263.767975 328.668060,252.190872   C335.851410,239.942902 339.439880,226.300049 339.877594,211.933884   C340.578766,188.918076 337.179718,166.996536 326.335541,146.147751   C320.245850,134.439743 312.377899,124.514633 302.297089,116.763817   C289.593597,106.996521 274.411377,104.856377 258.745850,107.774605   C240.772552,111.122734 227.760849,122.170876 218.592575,137.097549   C213.003677,146.196732 209.324356,156.687790 206.099503,166.965408   C201.935303,180.236649 201.850250,194.167786 201.968613,208.028442   C202.154709,229.821777 207.845123,249.394257 223.686554,265.270203   C228.844025,270.438904 233.992783,275.342865 241.159088,277.649231   C243.119446,278.280151 244.812637,279.741180 246.651749,280.835144   C241.220047,288.225922 236.168274,295.226807 230.977707,302.123230   C226.634216,307.894196 222.024734,313.465942 217.716675,319.262390   C209.379730,330.479706 201.215256,341.825073 192.894684,353.054688   C187.906647,359.786621 182.662643,366.329529 177.704376,373.082764   C170.027496,383.538757 162.584366,394.166809 154.879562,404.601929   C146.789932,415.558167 138.515884,426.378387 130.309189,437.248047   C124.270241,445.246521 118.181496,453.207550 112.167870,461.224915   C107.068588,468.023193 101.983780,474.834076 97.008095,481.722809   C93.243065,486.935455 90.121460,492.685699 85.900284,497.480804   C77.090828,507.488007 74.400894,518.827698 77.072380,531.591736   C78.404274,537.955261 81.683662,543.203552 86.200569,548.077698   C90.633530,552.861328 94.838478,557.717041 101.318787,559.290588   C106.608566,560.575012 112.108665,561.629211 117.522545,561.663208   C152.180573,561.880920 186.840561,561.788513 222.499863,561.798584  M979.004456,495.534790   C971.589539,504.681580 967.922791,514.982483 969.140198,526.872681   C970.640198,541.523193 977.940125,552.392212 991.295288,558.256226   C996.877441,560.707214 1003.542847,561.581299 1009.727112,561.626709   C1049.722900,561.921021 1089.721802,561.840088 1129.719360,561.716553   C1133.756348,561.704102 1135.609985,562.652283 1135.062988,566.969727   C1134.604248,570.590759 1134.406372,574.259705 1134.332275,577.912292   C1133.866211,600.890503 1133.648438,623.875244 1132.980957,646.847229   C1132.550171,661.671387 1144.878296,670.259033 1156.936523,672.809448   C1165.833008,674.691162 1174.372681,672.439087 1181.956055,667.183716   C1187.736084,663.177979 1191.961426,657.791931 1192.944336,650.903381   C1193.776855,645.067261 1193.099365,639.010681 1193.032837,633.052307   C1192.902588,621.388855 1192.776245,609.725037 1192.565796,598.062866   C1192.367798,587.078308 1192.001099,576.096313 1191.909058,565.111450   C1191.900391,564.071167 1193.304321,562.129517 1194.084961,562.112610   C1200.406006,561.976135 1206.914795,561.299988 1213.019287,562.521973   C1222.458130,564.411560 1231.556885,564.892334 1240.605591,561.400513   C1247.317139,558.810730 1251.979614,553.866333 1253.479370,546.970581   C1254.625122,541.702026 1254.569458,536.083252 1254.415405,530.638245   C1254.007324,516.207458 1240.347168,507.616241 1228.072388,508.175964   C1216.701904,508.694397 1205.343750,509.499603 1193.985107,510.251953   C1191.140503,510.440369 1189.764771,509.680115 1189.715332,506.459015   C1189.556763,496.143005 1189.144043,485.830261 1188.774170,475.518250   C1188.237427,460.553009 1187.652832,445.589478 1187.088135,430.625214   C1185.710693,394.124481 1184.334229,357.623688 1182.953857,321.123047   C1182.670898,313.641235 1182.300781,306.161804 1182.107666,298.677765   C1181.975952,293.570496 1182.082397,288.457092 1182.082397,284.690125   C1189.757324,282.014221 1196.496460,279.574005 1203.296265,277.316376   C1212.013794,274.422089 1217.175293,267.456787 1222.341187,260.630737   C1228.761475,252.147003 1229.899414,242.115021 1229.894531,231.847260   C1229.879517,200.015625 1229.889893,168.183975 1229.888306,136.352341   C1229.888062,132.685913 1230.059692,129.007462 1229.822754,125.355949   C1229.488892,120.211456 1225.321289,117.880890 1220.572266,119.785057   C1216.841431,121.280930 1216.091309,124.049774 1216.100342,127.743492   C1216.186768,163.241379 1215.694946,198.747711 1216.330078,234.234421   C1216.673584,253.425980 1199.085938,269.890411 1180.891846,269.158966   C1178.895386,269.078674 1176.891846,269.119690 1174.893066,269.167572   C1170.977661,269.261322 1168.664185,271.251495 1168.260376,275.164062   C1168.056152,277.143585 1168.073853,279.161163 1168.163940,281.153687   C1169.400391,308.492706 1170.817017,335.824554 1171.880371,363.170166   C1172.779297,386.290649 1173.304321,409.426025 1173.946533,432.556122   C1174.709106,460.015320 1175.434204,487.475555 1176.142944,514.936157   C1176.312134,521.496216 1180.641113,525.112976 1187.041748,524.622925   C1201.368896,523.526245 1215.716553,522.675476 1230.066162,521.920593   C1231.845947,521.826965 1233.792358,522.704712 1235.483398,523.507507   C1242.025757,526.613525 1240.898071,532.754456 1240.924927,538.258789   C1240.964844,546.448364 1237.979004,549.327759 1229.724121,549.165588   C1215.907104,548.894287 1202.094238,548.415833 1188.277588,548.124512   C1179.269043,547.934570 1177.781372,549.406738 1177.983154,558.464783   C1178.613647,586.762939 1179.254395,615.061401 1180.073975,643.354431   C1180.232788,648.839417 1178.633545,652.843506 1173.896729,655.911621   C1168.110474,659.659546 1162.139771,661.542175 1155.661987,658.554810   C1148.859985,655.417908 1146.261108,650.244385 1146.610596,642.268433   C1147.805298,614.997803 1148.120728,587.689453 1148.862061,560.397888   C1149.188477,548.380920 1145.963501,547.942749 1136.751099,547.982361   C1093.754272,548.167175 1050.755737,547.944519 1007.758667,548.105530   C993.662659,548.158325 982.567078,537.407776 982.629211,523.162170   C982.671936,513.333740 987.842957,506.417114 993.143494,499.273804   C1001.951233,487.404053 1010.832825,475.589111 1019.682495,463.750580   C1025.872803,455.469543 1032.064209,447.189362 1038.250977,438.905640   C1042.475708,433.249176 1046.741089,427.622406 1050.901611,421.919006   C1056.509277,414.231903 1061.935181,406.410828 1067.620117,398.782104   C1073.494507,390.899261 1079.685425,383.252411 1085.557495,375.367950   C1093.803833,364.295410 1101.827026,353.056793 1110.055420,341.970703   C1115.246216,334.977234 1120.756836,328.219940 1125.898804,321.191956   C1129.689697,316.010590 1132.948364,310.439606 1136.744141,305.262054   C1142.847046,296.937897 1149.472290,288.985962 1155.352417,280.512878   C1159.688110,274.265442 1156.469360,269.652710 1148.696777,269.020599   C1142.234985,268.495026 1135.726562,267.354584 1129.487915,265.600098   C1122.890381,263.744690 1117.795654,258.881500 1114.421387,253.261993   C1110.267700,246.344299 1108.441162,238.596359 1108.542603,230.105865   C1108.942749,196.612442 1108.712036,163.111389 1108.692627,129.613190   C1108.691650,127.790131 1108.704224,125.920700 1108.330444,124.153259   C1107.368042,119.603920 1102.541504,117.572746 1098.690063,120.040932   C1096.009766,121.758682 1094.907349,124.069221 1094.922607,127.497871   C1095.070923,160.662125 1094.888428,193.828110 1095.111694,226.991486   C1095.156494,233.657639 1095.818115,240.486740 1097.409180,246.941528   C1101.010254,261.551392 1109.769287,272.180939 1123.927368,278.011780   C1127.812988,279.612030 1131.640503,281.353851 1135.949463,283.228546   C1134.066040,286.042206 1132.203247,289.095581 1130.074951,291.950928   C1124.976196,298.791138 1119.653076,305.465088 1114.602661,312.339935   C1106.926636,322.789001 1099.444824,333.380554 1091.805054,343.856628   C1085.247314,352.848999 1078.596436,361.773651 1071.963135,370.710846   C1065.122314,379.927521 1058.306152,389.163147 1051.380493,398.315826   C1045.545776,406.026672 1039.430542,413.527954 1033.695679,421.310822   C1028.059937,428.959076 1022.897400,436.956238 1017.250427,444.595673   C1011.599731,452.240234 1005.518555,459.565125 999.786316,467.151215   C992.860352,476.317017 986.102905,485.610077 979.004456,495.534790  M1136.057007,161.500000   C1136.059082,175.964661 1136.039307,190.429398 1136.078979,204.893951   C1136.088379,208.355972 1140.231567,213.496063 1142.924561,213.598404   C1145.877563,213.710602 1150.805054,208.252548 1150.808472,204.708344   C1150.833008,178.937973 1150.838867,153.167542 1150.810059,127.397171   C1150.804565,122.479248 1147.378540,118.962242 1142.945801,119.108803   C1138.743896,119.247749 1136.073730,122.502357 1136.065552,127.580399   C1136.047729,138.553574 1136.058228,149.526794 1136.057007,161.500000  M1188.838745,133.536148   C1188.837036,130.871002 1188.840210,128.205841 1188.832153,125.540703   C1188.819214,121.210136 1186.533325,119.127579 1182.312012,119.123741   C1178.117798,119.119926 1175.155151,121.710915 1175.147949,125.633087   C1175.098999,152.284637 1175.107056,178.936371 1175.144165,205.587952   C1175.149170,209.160110 1179.290405,213.622345 1182.407715,213.676117   C1185.623047,213.731552 1188.686279,209.837585 1188.833008,205.484085   C1188.866577,204.485764 1188.839966,203.485382 1188.839966,202.485947   C1188.839478,179.832047 1188.838867,157.178131 1188.838745,133.536148  z"/>


<path fill="#FA9794" opacity="1.000000" stroke="none" d=" M490.122009,580.892212   C484.101837,574.624634 478.209778,568.675842 472.785980,562.327026   C466.499634,554.968628 460.411682,547.416809 454.647827,539.644714   C450.939178,534.643799 447.851166,529.164307 444.691010,523.778442   C435.747375,508.535645 428.736053,492.493286 422.830963,475.771545   C415.886475,456.106506 412.393646,436.016235 409.668274,415.453033   C407.795288,401.321106 407.583191,387.291718 408.482788,373.365387   C409.491364,357.752747 412.051758,342.104462 415.511322,326.828217   C418.371918,314.196991 422.854980,301.805786 427.851227,289.821930   C432.705353,278.178986 438.808594,267.012085 444.963593,255.970749   C449.667358,247.532669 455.093140,239.467667 460.611023,231.523758   C463.977173,226.677689 467.954590,222.217438 471.962097,217.864334   C478.659058,210.589951 485.118225,202.985794 492.551788,196.526627   C503.510193,187.004700 514.834961,177.786057 526.763367,169.536850   C536.042297,163.119965 546.246399,157.886871 556.467285,153.027954   C567.410706,147.825546 578.775513,143.469559 590.099426,139.116165   C608.581055,132.011032 627.856689,128.547180 647.559814,127.027031   C674.409607,124.955498 701.176392,125.420929 727.529480,131.123093   C744.387451,134.770737 760.767822,140.208328 776.814697,146.853790   C792.450684,153.329071 807.111572,161.548035 820.907166,170.936096   C833.840210,179.737167 845.627991,190.397141 857.093811,201.122025   C866.061096,209.509872 874.239258,218.872223 881.883179,228.503784   C888.282104,236.566696 893.708740,245.461746 899.003418,254.324356   C904.796143,264.020752 910.563171,273.823730 915.190491,284.098572   C919.512329,293.695068 923.050537,303.788177 925.624573,313.992889   C929.089355,327.729126 930.977478,341.855103 934.122681,355.681763   C938.803894,376.261108 937.438660,396.988251 935.649902,417.604462   C934.525635,430.562225 932.085693,443.555450 928.724548,456.128723   C925.117493,469.621948 920.468262,482.956726 914.924927,495.777435   C909.664124,507.944733 903.375427,519.817810 896.215454,530.970886   C889.272034,541.786682 880.945374,551.773376 872.666443,561.655151   C865.597168,570.093201 858.218750,578.399536 850.089966,585.788269   C841.290161,593.786865 831.718567,601.013489 822.022949,607.931274   C807.784058,618.090637 792.446533,626.471680 776.268982,633.139099   C768.039856,636.530579 759.601135,639.574097 751.023071,641.918457   C739.578674,645.046204 727.897888,647.303589 716.333984,650.000610   C689.547607,656.247742 662.539795,654.774170 635.602112,651.773132   C624.645325,650.552490 613.679077,648.275146 603.088806,645.198792   C590.135498,641.436096 577.268616,637.021240 564.931946,631.597412   C553.979248,626.782043 543.519104,620.652527 533.366333,614.268494   C524.000977,608.379639 515.198120,601.557373 506.407104,594.808105   C500.844391,590.537354 495.757477,585.646790 490.122009,580.892212  M498.335388,569.184753   C504.302246,574.751099 509.916840,580.769165 516.326355,585.767944   C524.093140,591.825256 532.322510,597.364014 540.734863,602.499390   C550.377441,608.385742 560.102417,614.353271 570.409363,618.878235   C582.298035,624.097717 594.643738,628.604919 607.187988,631.918152   C622.341492,635.920471 637.725281,639.771057 653.545288,639.938416   C675.219727,640.167786 696.860046,641.191895 718.411011,636.279297   C734.059082,632.712280 749.449524,628.818848 764.364441,622.865662   C778.617737,617.176819 792.179443,610.373657 805.255432,602.250305   C817.733032,594.498840 829.333496,585.807373 840.167480,575.992798   C854.607422,562.911438 867.523193,548.551575 878.652893,532.458435   C887.755188,519.296814 895.668152,505.500885 902.095581,490.970886   C907.281433,479.247681 911.830322,467.057648 914.923096,454.641602   C918.585632,439.937500 921.607971,424.857513 922.701111,409.780487   C924.343201,387.130951 923.387268,364.456757 918.781738,341.964996   C915.483704,325.858582 910.805176,310.268585 904.506958,295.197021   C899.873657,284.109497 894.990784,272.951691 888.670288,262.788483   C880.985229,250.431046 872.035095,238.796982 862.945557,227.397552   C856.332214,219.103561 849.194580,211.021790 841.223267,204.069260   C831.614441,195.688507 821.325562,187.882248 810.513977,181.137054   C796.745728,172.547211 782.637268,164.161087 767.785217,157.749405   C753.951721,151.777451 739.125061,147.773712 724.407104,144.292786   C713.489380,141.710678 702.073242,140.558807 690.830383,140.165604   C665.284729,139.272186 639.681580,138.924179 614.742615,146.191422   C607.159119,148.401276 599.633423,150.819489 592.012024,152.887070   C580.307983,156.062210 569.257141,160.748566 558.887329,166.973587   C547.640808,173.724945 536.172302,180.196747 525.475098,187.746185   C515.980896,194.446594 507.177856,202.195251 498.485809,209.947678   C484.315796,222.585831 472.563232,237.478119 462.310822,253.292084   C454.291046,265.662201 447.306213,278.900574 441.508240,292.457458   C435.891479,305.590698 431.431519,319.404419 428.214783,333.324005   C425.240051,346.196472 423.608337,359.568451 423.112915,372.785217   C422.092957,399.998291 422.072388,427.265869 430.559723,453.673462   C433.992615,464.354584 436.898438,475.231842 440.886383,485.698944   C443.855774,493.492767 448.013000,500.859467 451.952026,508.250702   C455.354492,514.635132 458.859680,521.014526 462.926239,526.982727   C468.080505,534.547180 473.547485,541.946655 479.436951,548.948425   C485.214844,555.817627 491.691406,562.099182 498.335388,569.184753  z"/>
<path fill="#FA9794" opacity="1.000000" stroke="none" d=" M221.999878,561.798340   C186.840561,561.788513 152.180573,561.880920 117.522545,561.663208   C112.108665,561.629211 106.608566,560.575012 101.318787,559.290588   C94.838478,557.717041 90.633530,552.861328 86.200569,548.077698   C81.683662,543.203552 78.404274,537.955261 77.072380,531.591736   C74.400894,518.827698 77.090828,507.488007 85.900284,497.480804   C90.121460,492.685699 93.243065,486.935455 97.008095,481.722809   C101.983780,474.834076 107.068588,468.023193 112.167870,461.224915   C118.181496,453.207550 124.270241,445.246521 130.309189,437.248047   C138.515884,426.378387 146.789932,415.558167 154.879562,404.601929   C162.584366,394.166809 170.027496,383.538757 177.704376,373.082764   C182.662643,366.329529 187.906647,359.786621 192.894684,353.054688   C201.215256,341.825073 209.379730,330.479706 217.716675,319.262390   C222.024734,313.465942 226.634216,307.894196 230.977707,302.123230   C236.168274,295.226807 241.220047,288.225922 246.651749,280.835144   C244.812637,279.741180 243.119446,278.280151 241.159088,277.649231   C233.992783,275.342865 228.844025,270.438904 223.686554,265.270203   C207.845123,249.394257 202.154709,229.821777 201.968613,208.028442   C201.850250,194.167786 201.935303,180.236649 206.099503,166.965408   C209.324356,156.687790 213.003677,146.196732 218.592575,137.097549   C227.760849,122.170876 240.772552,111.122734 258.745850,107.774605   C274.411377,104.856377 289.593597,106.996521 302.297089,116.763817   C312.377899,124.514633 320.245850,134.439743 326.335541,146.147751   C337.179718,166.996536 340.578766,188.918076 339.877594,211.933884   C339.439880,226.300049 335.851410,239.942902 328.668060,252.190872   C321.878143,263.767975 312.674103,273.389343 299.503448,278.231232   C297.065491,279.127472 294.653381,280.291504 292.534729,281.769714   C291.572052,282.441345 290.844391,284.193665 290.875092,285.434357   C291.389496,306.227692 292.040771,327.017609 292.662201,347.808289   C292.672180,348.141327 292.691406,348.474091 292.702789,348.807098   C293.480927,371.668640 294.334503,394.527954 295.016602,417.392365   C295.790924,443.348999 296.396393,469.310669 297.118286,495.268951   C297.210602,498.589142 297.876862,501.918030 297.711060,505.214417   C297.514893,509.115295 298.766541,510.599243 302.805695,510.282959   C313.820618,509.420349 324.856018,508.814880 335.885712,508.147125   C342.984283,507.717316 349.281555,509.942993 354.367889,514.792847   C356.678070,516.995605 358.965607,519.846924 359.832581,522.821045   C362.414276,531.677612 363.616821,540.617737 359.950378,549.730713   C357.448334,555.949646 353.303558,559.665833 347.131744,561.823730   C338.252441,564.928223 329.544952,564.113953 320.483215,562.420410   C314.191528,561.244629 307.522308,561.883179 301.042847,562.176819   C300.226807,562.213806 298.877350,565.098450 298.895813,566.650391   C299.064301,580.800354 299.501984,594.946960 299.816101,609.095520   C299.952972,615.259033 299.791748,621.435181 300.119812,627.586670   C300.442383,633.636169 301.750122,639.669312 301.664429,645.695984   C301.528381,655.264526 296.626373,662.723145 288.794708,667.798828   C282.647858,671.782593 275.756622,673.763855 268.086853,673.196289   C254.292999,672.175354 240.290649,661.872742 240.971146,645.536865   C242.037872,619.928467 242.401611,594.290771 243.051193,568.665161   C243.101318,566.687744 243.057785,564.707947 243.057785,561.798584   C235.987839,561.798584 229.243851,561.798584 221.999878,561.798340  M237.948608,315.408386   C231.741806,323.472870 225.417984,331.450653 219.361115,339.626221   C213.310226,347.793701 207.635178,356.239441 201.593979,364.414368   C195.969757,372.025055 189.964706,379.354279 184.339966,386.964600   C178.605042,394.724060 173.295273,402.799805 167.498779,410.511108   C159.926437,420.584900 151.915573,430.329376 144.357895,440.413757   C136.605072,450.758606 129.154205,461.330292 121.601822,471.824707   C111.923744,485.272888 102.337296,498.787476 92.588760,512.184265   C88.015633,518.468750 88.662895,525.555908 91.286499,531.625244   C96.139938,542.852844 104.927933,548.365234 117.987389,548.225281   C160.974365,547.764709 203.969467,548.055359 246.961441,548.074707   C254.874741,548.078308 257.006073,550.214478 256.847809,558.204834   C256.719330,564.690613 256.273865,571.169861 256.131165,577.655640   C255.654999,599.300720 255.545868,620.959412 254.661942,642.586975   C254.350067,650.217468 256.660797,655.280212 263.468140,658.557861   C270.373413,661.882629 276.447815,659.516357 282.087769,655.770874   C285.875824,653.255188 288.473846,649.579529 288.084076,644.575317   C287.471313,636.708435 286.518738,628.851624 286.296051,620.973999   C285.698395,599.835022 285.379089,578.687866 285.019409,557.542725   C284.898987,550.464172 287.453094,547.954407 294.587982,548.103638   C309.401733,548.413452 324.219604,548.671814 339.022552,549.276123   C344.137177,549.484863 346.977478,546.586060 348.589722,542.786316   C349.676666,540.224487 348.982391,536.880066 348.974945,533.886047   C348.956573,526.495422 344.098846,521.579346 336.649780,521.897827   C322.611847,522.498108 308.579437,523.274414 294.556915,524.168762   C287.737762,524.603699 284.388397,521.829102 284.195465,514.948792   C283.864136,503.134766 283.649628,491.316376 283.200226,479.506927   C282.286041,455.482880 281.206024,431.465149 280.279053,407.441559   C279.836212,395.964844 279.528595,384.481964 279.262604,372.999512   C278.788300,352.523895 278.419617,332.045837 277.952301,311.570038   C277.697906,300.423431 277.328552,289.279510 277.017059,278.134186   C276.890533,273.606445 278.470978,270.909515 283.414734,269.638824   C291.986053,267.435730 299.645569,263.557312 306.629272,257.538971   C314.663727,250.615158 319.530731,242.074280 322.351624,232.516342   C330.092102,206.289398 326.788147,180.652786 316.368439,155.720688   C315.429565,153.474182 314.022980,151.394577 312.642822,149.367371   C310.242859,145.842270 307.451233,142.564636 305.258911,138.921402   C300.926178,131.721237 294.342987,126.156693 287.165710,123.591522   C263.138031,115.004036 248.794083,122.058113 234.625534,137.701569   C226.214798,146.987823 222.133682,159.370499 218.878860,171.524750   C215.136597,185.499283 215.713699,199.882797 215.801483,214.207489   C215.873947,226.036774 220.511734,236.434296 225.532822,246.672989   C227.229691,250.133133 229.830032,253.446686 232.768387,255.943588   C240.296448,262.340698 248.525192,267.643768 258.448212,269.824707   C265.240356,271.317535 267.024780,277.848267 262.321960,283.009766   C260.788025,284.693329 259.402832,286.522125 258.047455,288.356750   C254.521088,293.129852 251.082413,297.967834 247.545044,302.732635   C244.530533,306.793152 241.427383,310.787842 237.948608,315.408386  z"/>
<path fill="#FA9794" opacity="1.000000" stroke="none" d=" M979.138489,495.191437   C986.102905,485.610077 992.860352,476.317017 999.786316,467.151215   C1005.518555,459.565125 1011.599731,452.240234 1017.250427,444.595673   C1022.897400,436.956238 1028.059937,428.959076 1033.695679,421.310822   C1039.430542,413.527954 1045.545776,406.026672 1051.380493,398.315826   C1058.306152,389.163147 1065.122314,379.927521 1071.963135,370.710846   C1078.596436,361.773651 1085.247314,352.848999 1091.805054,343.856628   C1099.444824,333.380554 1106.926636,322.789001 1114.602661,312.339935   C1119.653076,305.465088 1124.976196,298.791138 1130.074951,291.950928   C1132.203247,289.095581 1134.066040,286.042206 1135.949463,283.228546   C1131.640503,281.353851 1127.812988,279.612030 1123.927368,278.011780   C1109.769287,272.180939 1101.010254,261.551392 1097.409180,246.941528   C1095.818115,240.486740 1095.156494,233.657639 1095.111694,226.991486   C1094.888428,193.828110 1095.070923,160.662125 1094.922607,127.497871   C1094.907349,124.069221 1096.009766,121.758682 1098.690063,120.040932   C1102.541504,117.572746 1107.368042,119.603920 1108.330444,124.153259   C1108.704224,125.920700 1108.691650,127.790131 1108.692627,129.613190   C1108.712036,163.111389 1108.942749,196.612442 1108.542603,230.105865   C1108.441162,238.596359 1110.267700,246.344299 1114.421387,253.261993   C1117.795654,258.881500 1122.890381,263.744690 1129.487915,265.600098   C1135.726562,267.354584 1142.234985,268.495026 1148.696777,269.020599   C1156.469360,269.652710 1159.688110,274.265442 1155.352417,280.512878   C1149.472290,288.985962 1142.847046,296.937897 1136.744141,305.262054   C1132.948364,310.439606 1129.689697,316.010590 1125.898804,321.191956   C1120.756836,328.219940 1115.246216,334.977234 1110.055420,341.970703   C1101.827026,353.056793 1093.803833,364.295410 1085.557495,375.367950   C1079.685425,383.252411 1073.494507,390.899261 1067.620117,398.782104   C1061.935181,406.410828 1056.509277,414.231903 1050.901611,421.919006   C1046.741089,427.622406 1042.475708,433.249176 1038.250977,438.905640   C1032.064209,447.189362 1025.872803,455.469543 1019.682495,463.750580   C1010.832825,475.589111 1001.951233,487.404053 993.143494,499.273804   C987.842957,506.417114 982.671936,513.333740 982.629211,523.162170   C982.567078,537.407776 993.662659,548.158325 1007.758667,548.105530   C1050.755737,547.944519 1093.754272,548.167175 1136.751099,547.982361   C1145.963501,547.942749 1149.188477,548.380920 1148.862061,560.397888   C1148.120728,587.689453 1147.805298,614.997803 1146.610596,642.268433   C1146.261108,650.244385 1148.859985,655.417908 1155.661987,658.554810   C1162.139771,661.542175 1168.110474,659.659546 1173.896729,655.911621   C1178.633545,652.843506 1180.232788,648.839417 1180.073975,643.354431   C1179.254395,615.061401 1178.613647,586.762939 1177.983154,558.464783   C1177.781372,549.406738 1179.269043,547.934570 1188.277588,548.124512   C1202.094238,548.415833 1215.907104,548.894287 1229.724121,549.165588   C1237.979004,549.327759 1240.964844,546.448364 1240.924927,538.258789   C1240.898071,532.754456 1242.025757,526.613525 1235.483398,523.507507   C1233.792358,522.704712 1231.845947,521.826965 1230.066162,521.920593   C1215.716553,522.675476 1201.368896,523.526245 1187.041748,524.622925   C1180.641113,525.112976 1176.312134,521.496216 1176.142944,514.936157   C1175.434204,487.475555 1174.709106,460.015320 1173.946533,432.556122   C1173.304321,409.426025 1172.779297,386.290649 1171.880371,363.170166   C1170.817017,335.824554 1169.400391,308.492706 1168.163940,281.153687   C1168.073853,279.161163 1168.056152,277.143585 1168.260376,275.164062   C1168.664185,271.251495 1170.977661,269.261322 1174.893066,269.167572   C1176.891846,269.119690 1178.895386,269.078674 1180.891846,269.158966   C1199.085938,269.890411 1216.673584,253.425980 1216.330078,234.234421   C1215.694946,198.747711 1216.186768,163.241379 1216.100342,127.743492   C1216.091309,124.049774 1216.841431,121.280930 1220.572266,119.785057   C1225.321289,117.880890 1229.488892,120.211456 1229.822754,125.355949   C1230.059692,129.007462 1229.888062,132.685913 1229.888306,136.352341   C1229.889893,168.183975 1229.879517,200.015625 1229.894531,231.847260   C1229.899414,242.115021 1228.761475,252.147003 1222.341187,260.630737   C1217.175293,267.456787 1212.013794,274.422089 1203.296265,277.316376   C1196.496460,279.574005 1189.757324,282.014221 1182.082397,284.690125   C1182.082397,288.457092 1181.975952,293.570496 1182.107666,298.677765   C1182.300781,306.161804 1182.670898,313.641235 1182.953857,321.123047   C1184.334229,357.623688 1185.710693,394.124481 1187.088135,430.625214   C1187.652832,445.589478 1188.237427,460.553009 1188.774170,475.518250   C1189.144043,485.830261 1189.556763,496.143005 1189.715332,506.459015   C1189.764771,509.680115 1191.140503,510.440369 1193.985107,510.251953   C1205.343750,509.499603 1216.701904,508.694397 1228.072388,508.175964   C1240.347168,507.616241 1254.007324,516.207458 1254.415405,530.638245   C1254.569458,536.083252 1254.625122,541.702026 1253.479370,546.970581   C1251.979614,553.866333 1247.317139,558.810730 1240.605591,561.400513   C1231.556885,564.892334 1222.458130,564.411560 1213.019287,562.521973   C1206.914795,561.299988 1200.406006,561.976135 1194.084961,562.112610   C1193.304321,562.129517 1191.900391,564.071167 1191.909058,565.111450   C1192.001099,576.096313 1192.367798,587.078308 1192.565796,598.062866   C1192.776245,609.725037 1192.902588,621.388855 1193.032837,633.052307   C1193.099365,639.010681 1193.776855,645.067261 1192.944336,650.903381   C1191.961426,657.791931 1187.736084,663.177979 1181.956055,667.183716   C1174.372681,672.439087 1165.833008,674.691162 1156.936523,672.809448   C1144.878296,670.259033 1132.550171,661.671387 1132.980957,646.847229   C1133.648438,623.875244 1133.866211,600.890503 1134.332275,577.912292   C1134.406372,574.259705 1134.604248,570.590759 1135.062988,566.969727   C1135.609985,562.652283 1133.756348,561.704102 1129.719360,561.716553   C1089.721802,561.840088 1049.722900,561.921021 1009.727112,561.626709   C1003.542847,561.581299 996.877441,560.707214 991.295288,558.256226   C977.940125,552.392212 970.640198,541.523193 969.140198,526.872681   C967.922791,514.982483 971.589539,504.681580 979.138489,495.191437  z"/>
<path fill="#FA9996" opacity="1.000000" stroke="none" d=" M1136.057129,161.000000   C1136.058228,149.526794 1136.047729,138.553574 1136.065552,127.580399   C1136.073730,122.502357 1138.743896,119.247749 1142.945801,119.108803   C1147.378540,118.962242 1150.804565,122.479248 1150.810059,127.397171   C1150.838867,153.167542 1150.833008,178.937973 1150.808472,204.708344   C1150.805054,208.252548 1145.877563,213.710602 1142.924561,213.598404   C1140.231567,213.496063 1136.088379,208.355972 1136.078979,204.893951   C1136.039307,190.429398 1136.059082,175.964661 1136.057129,161.000000  z"/>
<path fill="#FA9996" opacity="1.000000" stroke="none" d=" M1188.838623,134.030182   C1188.838867,157.178131 1188.839478,179.832047 1188.839966,202.485947   C1188.839966,203.485382 1188.866577,204.485764 1188.833008,205.484085   C1188.686279,209.837585 1185.623047,213.731552 1182.407715,213.676117   C1179.290405,213.622345 1175.149170,209.160110 1175.144165,205.587952   C1175.107056,178.936371 1175.098999,152.284637 1175.147949,125.633087   C1175.155151,121.710915 1178.117798,119.119926 1182.312012,119.123741   C1186.533325,119.127579 1188.819214,121.210136 1188.832153,125.540703   C1188.840210,128.205841 1188.837036,130.871002 1188.838623,134.030182  z"/>
<path fill="transparent" opacity="1.000000" stroke="none" d=" M498.098358,568.911682   C491.691406,562.099182 485.214844,555.817627 479.436951,548.948425   C473.547485,541.946655 468.080505,534.547180 462.926239,526.982727   C458.859680,521.014526 455.354492,514.635132 451.952026,508.250702   C448.013000,500.859467 443.855774,493.492767 440.886383,485.698944   C436.898438,475.231842 433.992615,464.354584 430.559723,453.673462   C422.072388,427.265869 422.092957,399.998291 423.112915,372.785217   C423.608337,359.568451 425.240051,346.196472 428.214783,333.324005   C431.431519,319.404419 435.891479,305.590698 441.508240,292.457458   C447.306213,278.900574 454.291046,265.662201 462.310822,253.292084   C472.563232,237.478119 484.315796,222.585831 498.485809,209.947678   C507.177856,202.195251 515.980896,194.446594 525.475098,187.746185   C536.172302,180.196747 547.640808,173.724945 558.887329,166.973587   C569.257141,160.748566 580.307983,156.062210 592.012024,152.887070   C599.633423,150.819489 607.159119,148.401276 614.742615,146.191422   C639.681580,138.924179 665.284729,139.272186 690.830383,140.165604   C702.073242,140.558807 713.489380,141.710678 724.407104,144.292786   C739.125061,147.773712 753.951721,151.777451 767.785217,157.749405   C782.637268,164.161087 796.745728,172.547211 810.513977,181.137054   C821.325562,187.882248 831.614441,195.688507 841.223267,204.069260   C849.194580,211.021790 856.332214,219.103561 862.945557,227.397552   C872.035095,238.796982 880.985229,250.431046 888.670288,262.788483   C894.990784,272.951691 899.873657,284.109497 904.506958,295.197021   C910.805176,310.268585 915.483704,325.858582 918.781738,341.964996   C923.387268,364.456757 924.343201,387.130951 922.701111,409.780487   C921.607971,424.857513 918.585632,439.937500 914.923096,454.641602   C911.830322,467.057648 907.281433,479.247681 902.095581,490.970886   C895.668152,505.500885 887.755188,519.296814 878.652893,532.458435   C867.523193,548.551575 854.607422,562.911438 840.167480,575.992798   C829.333496,585.807373 817.733032,594.498840 805.255432,602.250305   C792.179443,610.373657 778.617737,617.176819 764.364441,622.865662   C749.449524,628.818848 734.059082,632.712280 718.411011,636.279297   C696.860046,641.191895 675.219727,640.167786 653.545288,639.938416   C637.725281,639.771057 622.341492,635.920471 607.187988,631.918152   C594.643738,628.604919 582.298035,624.097717 570.409363,618.878235   C560.102417,614.353271 550.377441,608.385742 540.734863,602.499390   C532.322510,597.364014 524.093140,591.825256 516.326355,585.767944   C509.916840,580.769165 504.302246,574.751099 498.098358,568.911682  M829.407959,468.005005   C833.580383,457.418762 838.919678,447.124420 841.657532,436.179321   C845.989563,418.860809 849.001160,401.139008 847.925232,383.092560   C847.614075,377.873322 846.795898,372.666443 845.923218,367.502411   C844.264648,357.688049 843.627502,347.469604 840.321777,338.221191   C835.754089,325.442291 829.587646,313.151337 823.190674,301.138824   C818.820190,292.931763 813.592712,284.937347 807.472656,277.968231   C800.054199,269.520660 791.584717,261.910919 783.019287,254.582260   C775.962463,248.544373 768.573242,242.592224 760.488220,238.129700   C748.424561,231.471191 736.072449,224.967224 722.382751,222.095016   C710.120117,219.522232 697.831421,216.332550 685.408569,215.438446   C666.902771,214.106506 648.235474,214.229111 630.238770,220.230621   C618.808838,224.042282 607.030029,227.090439 596.089783,232.000885   C586.919861,236.116760 578.231140,241.778030 570.248047,247.944473   C560.399597,255.551910 550.901978,263.825623 542.383789,272.875946   C535.547119,280.139679 530.410706,289.000610 524.494324,297.134247   C512.944763,313.012238 506.897186,331.279205 501.976715,349.943695   C500.251404,356.488403 499.388153,363.346344 498.903748,370.116486   C497.348969,391.844391 497.527710,413.279938 503.568176,434.720459   C508.467041,452.108917 514.927002,468.432739 524.821411,483.415985   C529.352661,490.277740 534.242615,496.915680 539.220398,503.464691   C542.303101,507.520569 547.111084,507.745697 550.629456,504.462769   C552.920227,502.325256 552.381165,497.888672 549.576233,494.636383   C546.786194,491.401276 543.597412,488.363464 541.486328,484.716553   C534.759521,473.096161 527.537109,461.628510 522.230896,449.356140   C516.463135,436.016266 512.766968,421.784729 512.022644,407.075256   C510.568359,378.335693 511.808929,349.976532 525.497681,323.697052   C529.507568,315.998901 533.804016,308.438416 538.243469,300.978058   C547.338745,285.693542 559.696472,273.450195 573.503845,262.325348   C586.242676,252.061417 600.381348,244.311401 615.392578,238.568008   C628.921875,233.391602 643.099182,229.329651 657.828125,228.996017   C677.719360,228.545456 697.472839,228.254761 716.985291,234.425018   C730.636230,238.741730 743.676086,244.050369 755.833069,251.301422   C766.482361,257.653229 776.166687,265.363495 785.154602,274.158234   C798.265259,286.987030 809.184021,301.251587 816.900024,317.744873   C821.828613,328.279877 826.232605,339.250519 829.165405,350.471863   C831.743958,360.337585 831.926697,370.826355 833.216675,381.033783   C833.664307,384.576172 834.703430,388.104340 834.668030,391.630951   C834.629150,395.506836 833.599121,399.365448 833.114807,403.245789   C832.210205,410.494019 832.310852,418.016876 830.325317,424.947693   C826.943604,436.751740 822.762024,448.394196 817.964844,459.700775   C814.921448,466.873810 810.236328,473.365509 806.126160,480.063751   C804.281738,483.069489 804.692383,488.119629 807.402649,490.012054   C810.426636,492.123596 814.043274,493.043091 816.320007,489.706360   C820.935852,482.941772 824.896790,475.730286 829.407959,468.005005  M744.720215,549.114746   C753.710022,544.026550 763.166992,539.601074 771.568054,533.677979   C781.468018,526.698120 790.535767,518.518188 799.787659,510.650726   C802.759399,508.123688 802.303894,504.617493 800.371094,501.608551   C798.650757,498.930206 793.199951,498.013550 790.894104,500.011353   C787.924744,502.584015 785.473083,505.767944 782.439941,508.250641   C774.988220,514.350159 767.551758,520.513306 759.677673,526.035645   C754.595032,529.600281 748.893250,532.394348 743.212158,534.966553   C735.170654,538.607544 727.147400,542.794800 718.656250,544.820251   C705.383972,547.986206 691.788513,550.128296 678.209167,551.554138   C669.862061,552.430481 661.088379,552.209534 652.865784,550.620544   C640.158936,548.164978 627.513794,544.816040 615.309204,540.519958   C605.762939,537.159668 596.670227,532.230652 587.853394,527.167480   C580.906799,523.178223 574.761597,517.814453 568.120972,513.264709   C563.343079,509.991272 560.544922,510.898682 557.803589,516.093201   C557.358826,516.935913 556.766907,517.701050 556.204102,518.561523   C557.814758,520.813782 558.920471,523.530640 560.937256,524.979614   C570.254883,531.674316 579.451416,538.682495 589.417419,544.287231   C598.402954,549.340576 608.017090,553.875122 617.917847,556.558228   C631.888123,560.344299 646.279846,563.137512 660.670776,564.663818   C677.855957,566.486450 695.189209,565.212036 711.932922,560.518188   C722.822449,557.465576 733.382202,553.236511 744.720215,549.114746  z"/>
<path fill="transparent" opacity="1.000000" stroke="none" d=" M238.156036,315.109985   C241.427383,310.787842 244.530533,306.793152 247.545044,302.732635   C251.082413,297.967834 254.521088,293.129852 258.047455,288.356750   C259.402832,286.522125 260.788025,284.693329 262.321960,283.009766   C267.024780,277.848267 265.240356,271.317535 258.448212,269.824707   C248.525192,267.643768 240.296448,262.340698 232.768387,255.943588   C229.830032,253.446686 227.229691,250.133133 225.532822,246.672989   C220.511734,236.434296 215.873947,226.036774 215.801483,214.207489   C215.713699,199.882797 215.136597,185.499283 218.878860,171.524750   C222.133682,159.370499 226.214798,146.987823 234.625534,137.701569   C248.794083,122.058113 263.138031,115.004036 287.165710,123.591522   C294.342987,126.156693 300.926178,131.721237 305.258911,138.921402   C307.451233,142.564636 310.242859,145.842270 312.642822,149.367371   C314.022980,151.394577 315.429565,153.474182 316.368439,155.720688   C326.788147,180.652786 330.092102,206.289398 322.351624,232.516342   C319.530731,242.074280 314.663727,250.615158 306.629272,257.538971   C299.645569,263.557312 291.986053,267.435730 283.414734,269.638824   C278.470978,270.909515 276.890533,273.606445 277.017059,278.134186   C277.328552,289.279510 277.697906,300.423431 277.952301,311.570038   C278.419617,332.045837 278.788300,352.523895 279.262604,372.999512   C279.528595,384.481964 279.836212,395.964844 280.279053,407.441559   C281.206024,431.465149 282.286041,455.482880 283.200226,479.506927   C283.649628,491.316376 283.864136,503.134766 284.195465,514.948792   C284.388397,521.829102 287.737762,524.603699 294.556915,524.168762   C308.579437,523.274414 322.611847,522.498108 336.649780,521.897827   C344.098846,521.579346 348.956573,526.495422 348.974945,533.886047   C348.982391,536.880066 349.676666,540.224487 348.589722,542.786316   C346.977478,546.586060 344.137177,549.484863 339.022552,549.276123   C324.219604,548.671814 309.401733,548.413452 294.587982,548.103638   C287.453094,547.954407 284.898987,550.464172 285.019409,557.542725   C285.379089,578.687866 285.698395,599.835022 286.296051,620.973999   C286.518738,628.851624 287.471313,636.708435 288.084076,644.575317   C288.473846,649.579529 285.875824,653.255188 282.087769,655.770874   C276.447815,659.516357 270.373413,661.882629 263.468140,658.557861   C256.660797,655.280212 254.350067,650.217468 254.661942,642.586975   C255.545868,620.959412 255.654999,599.300720 256.131165,577.655640   C256.273865,571.169861 256.719330,564.690613 256.847809,558.204834   C257.006073,550.214478 254.874741,548.078308 246.961441,548.074707   C203.969467,548.055359 160.974365,547.764709 117.987389,548.225281   C104.927933,548.365234 96.139938,542.852844 91.286499,531.625244   C88.662895,525.555908 88.015633,518.468750 92.588760,512.184265   C102.337296,498.787476 111.923744,485.272888 121.601822,471.824707   C129.154205,461.330292 136.605072,450.758606 144.357895,440.413757   C151.915573,430.329376 159.926437,420.584900 167.498779,410.511108   C173.295273,402.799805 178.605042,394.724060 184.339966,386.964600   C189.964706,379.354279 195.969757,372.025055 201.593979,364.414368   C207.635178,356.239441 213.310226,347.793701 219.361115,339.626221   C225.417984,331.450653 231.741806,323.472870 238.156036,315.109985  z"/>
<path fill="#FA9794" opacity="1.000000" stroke="none" d=" M829.267822,468.354004   C824.896790,475.730286 820.935852,482.941772 816.320007,489.706360   C814.043274,493.043091 810.426636,492.123596 807.402649,490.012054   C804.692383,488.119629 804.281738,483.069489 806.126160,480.063751   C810.236328,473.365509 814.921448,466.873810 817.964844,459.700775   C822.762024,448.394196 826.943604,436.751740 830.325317,424.947693   C832.310852,418.016876 832.210205,410.494019 833.114807,403.245789   C833.599121,399.365448 834.629150,395.506836 834.668030,391.630951   C834.703430,388.104340 833.664307,384.576172 833.216675,381.033783   C831.926697,370.826355 831.743958,360.337585 829.165405,350.471863   C826.232605,339.250519 821.828613,328.279877 816.900024,317.744873   C809.184021,301.251587 798.265259,286.987030 785.154602,274.158234   C776.166687,265.363495 766.482361,257.653229 755.833069,251.301422   C743.676086,244.050369 730.636230,238.741730 716.985291,234.425018   C697.472839,228.254761 677.719360,228.545456 657.828125,228.996017   C643.099182,229.329651 628.921875,233.391602 615.392578,238.568008   C600.381348,244.311401 586.242676,252.061417 573.503845,262.325348   C559.696472,273.450195 547.338745,285.693542 538.243469,300.978058   C533.804016,308.438416 529.507568,315.998901 525.497681,323.697052   C511.808929,349.976532 510.568359,378.335693 512.022644,407.075256   C512.766968,421.784729 516.463135,436.016266 522.230896,449.356140   C527.537109,461.628510 534.759521,473.096161 541.486328,484.716553   C543.597412,488.363464 546.786194,491.401276 549.576233,494.636383   C552.381165,497.888672 552.920227,502.325256 550.629456,504.462769   C547.111084,507.745697 542.303101,507.520569 539.220398,503.464691   C534.242615,496.915680 529.352661,490.277740 524.821411,483.415985   C514.927002,468.432739 508.467041,452.108917 503.568176,434.720459   C497.527710,413.279938 497.348969,391.844391 498.903748,370.116486   C499.388153,363.346344 500.251404,356.488403 501.976715,349.943695   C506.897186,331.279205 512.944763,313.012238 524.494324,297.134247   C530.410706,289.000610 535.547119,280.139679 542.383789,272.875946   C550.901978,263.825623 560.399597,255.551910 570.248047,247.944473   C578.231140,241.778030 586.919861,236.116760 596.089783,232.000885   C607.030029,227.090439 618.808838,224.042282 630.238770,220.230621   C648.235474,214.229111 666.902771,214.106506 685.408569,215.438446   C697.831421,216.332550 710.120117,219.522232 722.382751,222.095016   C736.072449,224.967224 748.424561,231.471191 760.488220,238.129700   C768.573242,242.592224 775.962463,248.544373 783.019287,254.582260   C791.584717,261.910919 800.054199,269.520660 807.472656,277.968231   C813.592712,284.937347 818.820190,292.931763 823.190674,301.138824   C829.587646,313.151337 835.754089,325.442291 840.321777,338.221191   C843.627502,347.469604 844.264648,357.688049 845.923218,367.502411   C846.795898,372.666443 847.614075,377.873322 847.925232,383.092560   C849.001160,401.139008 845.989563,418.860809 841.657532,436.179321   C838.919678,447.124420 833.580383,457.418762 829.267822,468.354004  z"/>
<path fill="#FA9794" opacity="1.000000" stroke="none" d=" M744.404907,549.324585   C733.382202,553.236511 722.822449,557.465576 711.932922,560.518188   C695.189209,565.212036 677.855957,566.486450 660.670776,564.663818   C646.279846,563.137512 631.888123,560.344299 617.917847,556.558228   C608.017090,553.875122 598.402954,549.340576 589.417419,544.287231   C579.451416,538.682495 570.254883,531.674316 560.937256,524.979614   C558.920471,523.530640 557.814758,520.813782 556.204102,518.561523   C556.766907,517.701050 557.358826,516.935913 557.803589,516.093201   C560.544922,510.898682 563.343079,509.991272 568.120972,513.264709   C574.761597,517.814453 580.906799,523.178223 587.853394,527.167480   C596.670227,532.230652 605.762939,537.159668 615.309204,540.519958   C627.513794,544.816040 640.158936,548.164978 652.865784,550.620544   C661.088379,552.209534 669.862061,552.430481 678.209167,551.554138   C691.788513,550.128296 705.383972,547.986206 718.656250,544.820251   C727.147400,542.794800 735.170654,538.607544 743.212158,534.966553   C748.893250,532.394348 754.595032,529.600281 759.677673,526.035645   C767.551758,520.513306 774.988220,514.350159 782.439941,508.250641   C785.473083,505.767944 787.924744,502.584015 790.894104,500.011353   C793.199951,498.013550 798.650757,498.930206 800.371094,501.608551   C802.303894,504.617493 802.759399,508.123688 799.787659,510.650726   C790.535767,518.518188 781.468018,526.698120 771.568054,533.677979   C763.166992,539.601074 753.710022,544.026550 744.404907,549.324585  z"/>
</svg>
